# xmcd
#
# Track frame offsets: 
#        150
#        14547
#        31720
#        42972
#        57995
#        74130
#        91952
#        105805
#        116162
#        130475
#        143497
#
# Disc length: 2157 seconds
#
# Revision: 1
# Processed by: cddbd v1.5.2PL0 Copyright (c) Steve Scherf et al.
# Submitted via: ExactAudioCopyFreeDBPlugin 1.0
#
DISCID=94086b0b
DTITLE=Rockapella - Best A Cappella
DYEAR=2002
DGENRE=A Cappella - R&B
TTITLE0=Land Of A Thousand Dances
TTITLE1=Funky Monkey Baby
TTITLE2=Oh, Pretty Woman
TTITLE3=No No Boy
TTITLE4=Zombie Jamboree
TTITLE5=Riverside Hotel
TTITLE6=Love Me Tender
TTITLE7=Make It A Slow Boogie
TTITLE8=Stand By Me
TTITLE9=Runaway
TTITLE10=Ellie My Love
EXTD=YEAR: 2002
EXTT0=
EXTT1=
EXTT2=
EXTT3=
EXTT4=
EXTT5=
EXTT6=
EXTT7=
EXTT8=
EXTT9=
EXTT10=
PLAYORDER=
